<?xml version="1.0" encoding="UTF-8"?>
<!DOCTYPE svg PUBLIC "-//W3C//DTD SVG 1.1//EN" "http://www.w3.org/Graphics/SVG/1.1/DTD/svg11.dtd">
<!-- Creator: CorelDRAW (Evaluation Version) -->
<svg xmlns="http://www.w3.org/2000/svg" xml:space="preserve" width="159.912mm" height="159.912mm" version="1.1" style="shape-rendering:geometricPrecision; text-rendering:geometricPrecision; image-rendering:optimizeQuality; fill-rule:evenodd; clip-rule:evenodd"
viewBox="0 0 4252.03 4252.03"
 xmlns:xlink="http://www.w3.org/1999/xlink"
 xmlns:xodm="http://www.corel.com/coreldraw/odm/2003">
 <defs>
  <style type="text/css">
   <![CDATA[
    .fil1 {fill:none}
    .fil0 {fill:#FF6600;fill-rule:nonzero}
   ]]>
  </style>
   <clipPath id="id0">
    <path d="M-0 0l4252.03 0 0 4252.03 -4252.03 0 0 -4252.03z"/>
   </clipPath>
 </defs>
 <g id="Layer_x0020_1">
  <metadata id="CorelCorpID_0Corel-Layer"/>
  <g>
  </g>
  <g style="clip-path:url(#id0)">
   <g>
    <path class="fil0" d="M133.44 876.4l137.38 0c32.74,6.2 49.11,22.57 49.11,49.33l0 365.47 2.65 0 349.99 -370.78c23.01,-29.2 43.58,-44.02 62.16,-44.02l176.32 0c14.82,0 26.77,8.63 36.28,25.89l0 18.14c0,18.14 -24.11,51.11 -72.56,98.67l-285.16 313.7 355.29 497.77 2.43 15.49 0 7.74c0,15.71 -7.74,28.54 -23.23,38.94l-194.46 0c-23.67,0 -53.09,-29.42 -88.05,-88.05l-212.6 -295.56c-72.56,74.78 -109.07,115.26 -109.07,121.67l0 204.86c-4.65,38.05 -21.02,57.08 -49.11,57.08l-132.29 0c-32.74,-5.53 -49.33,-22.12 -49.33,-49.33l0 -922.97c9.29,-29.2 23.89,-44.02 44.25,-44.02zm1352.47 0l30.97 0c37.61,0 70.57,27.65 98.45,82.96l337.15 873.63 0 13.05c-6.42,31.19 -20.35,46.68 -41.59,46.68l-126.98 0c-40.49,0 -64.82,-12.17 -72.56,-36.28 -31.64,-86.5 -50.44,-134.07 -57.08,-142.69l-303.3 0c-6.86,10.4 -26.77,60.62 -59.51,150.43 -9.07,13.49 -20.35,23.01 -33.85,28.54l-168.36 0c-17.92,0 -29.87,-14.6 -36.5,-44.02l0 -10.4c7.08,-25.89 121.01,-325.87 342.24,-899.74 32.08,-41.37 62.39,-62.17 90.93,-62.17zm12.83 432.95l-62.16 171.23 129.64 0c-41.15,-114.16 -63.49,-171.23 -67.47,-171.23zm896.29 -427.64l44.02 0c133.62,0 247.78,46.68 342.24,139.82 41.59,56.19 62.39,111.5 62.39,165.92l0 13.05c0,22.56 -16.59,37.16 -49.33,44.02l-129.64 0c-30.31,0 -48.45,-21.46 -54.42,-64.82 -38.05,-44.91 -103.76,-67.25 -197.12,-67.25l-5.09 0c-64.82,0 -122.78,19.69 -173.67,59.51l-7.96 25.88c0,35.62 101.1,64.82 303.52,88.27 82.08,19.03 140.7,38.94 176.1,59.51 91.59,56.64 137.6,129.2 137.6,217.91l0 30.97c0,108.62 -71.01,194.9 -212.6,259.28 -71.46,25.88 -134.51,38.94 -189.37,38.94l-38.94 0c-127.87,0 -238.49,-43.14 -331.84,-129.64 -50,-52.65 -75.22,-114.82 -75.22,-186.72 9.29,-30.97 23.89,-46.68 44.25,-46.68l142.47 0c25.22,0 41.59,22.57 49.33,67.48 42.7,43.14 105.08,64.82 186.72,64.82 96.23,0 161.05,-25.89 194.46,-77.87l2.43 -10.18c0,-31.64 -98.45,-60.18 -295.56,-85.62 -76.33,-15.49 -135.17,-33.63 -176.32,-54.42 -98.45,-62.61 -147.78,-137.83 -147.78,-225.65l0 -30.97c0,-75.66 46.02,-149.11 137.6,-220.35 85.84,-50.22 173.22,-75.22 261.72,-75.22zm587.89 -2.65l142.47 0c29.42,9.07 44.02,23.67 44.02,44.02l0 925.62c-9.07,29.42 -23.67,44.02 -44.02,44.02l-142.47 0c-29.42,-9.07 -44.25,-23.67 -44.25,-44.02l0 -925.62c9.29,-29.42 23.89,-44.02 44.25,-44.02zm402.95 0l417.46 0c114.82,0 205.52,50.88 272.11,152.87 27.65,47.12 41.59,99.11 41.59,155.52l0 7.96c0,116.59 -57.08,208.18 -171.23,274.77l-15.49 5.09 0 5.31c151.98,212.6 232.51,328.3 241.14,347.33l0 20.8c-9.07,29.42 -23.89,44.02 -44.25,44.02l-165.92 0c-18.14,0 -46.68,-31.19 -85.4,-93.36l-215.25 -298.21 -160.83 0 0 342.24c-7.3,32.96 -21.9,49.33 -44.02,49.33l-142.47 0c-29.42,-9.07 -44.25,-23.67 -44.25,-44.02l0 -855.49c0,-57.96 31.2,-95.13 93.36,-111.5l23.45 -2.65zm113.93 230.74l0 160.61 300.87 0c37.17,0 62.16,-13.72 75.22,-41.37 5.09,-8.63 7.74,-19.91 7.74,-33.63l0 -15.71c-7.3,-46.68 -35.84,-69.91 -85.61,-69.91l-298.22 0zm-3000.89 1254.81l38.94 0c115.7,0 222.11,57.74 318.79,173.67 36.28,57.96 54.42,94.24 54.42,108.85l0 13.05c0,25.88 -35.4,49.11 -106.19,69.91 -30.31,13.94 -48.45,20.8 -54.42,20.8l-15.71 0c-21.02,0 -41.81,-24.33 -62.16,-72.56 -41.37,-55.31 -95.79,-82.96 -163.27,-82.96 -75.66,0 -133.62,39.6 -173.67,119.24 -10.4,24.56 -15.71,66.15 -15.71,124.33l0 80.31c0,109.07 38.94,178.97 116.81,210.17 24.11,10.4 49.11,15.49 75.22,15.49l12.83 0c67.92,0 121.45,-36.28 160.83,-108.85l0 -49.33 -194.46 0c-34.51,-7.3 -51.77,-23.67 -51.77,-49.11l0 -137.6c0,-27.21 22.35,-42.7 67.25,-46.68l272.34 0c91.59,0 137.38,46.68 137.38,140.04l0 168.58c0,58.85 -41.59,129.64 -124.55,212.6 -83.4,67.47 -167.25,101.1 -251.32,101.1l-46.68 0c-105.09,0 -204.42,-46.68 -298.22,-140.04 -70.79,-81.19 -106.41,-178.09 -106.41,-290.25l0 -142.69c0,-183.62 84.73,-318.35 254.19,-404.41 55.31,-22.57 107.07,-33.63 155.52,-33.63zm557.36 -2.65l142.47 0c22.12,0 36.72,16.37 44.02,49.33l-5.09 391.35 0 20.8c0,141.81 14.6,223.88 44.02,246.23 39.82,50.22 93.36,75.22 160.83,75.22 50.88,0 95.79,-19.91 134.73,-59.73 34.51,-36.94 51.99,-86.28 51.99,-147.56l0 -526.3c7.3,-32.96 21.9,-49.33 44.02,-49.33l142.47 0c29.42,9.07 44.25,23.67 44.25,44.02l0 559.93c0,137.6 -66.59,254.19 -199.77,349.99 -72.56,39.82 -139.15,59.73 -199.55,59.73l-36.28 0c-135.84,0 -250.65,-63.05 -344.9,-189.15 -44.91,-75.22 -67.48,-149.55 -67.48,-223l0 -557.5c9.29,-29.42 23.89,-44.02 44.25,-44.02zm1007.79 0l632.5 0c29.42,9.07 44.02,23.67 44.02,44.02l0 142.69c0,21.9 -16.37,36.73 -49.11,44.02l-505.73 0 0 160.61 352.64 0c25.88,0 42.47,17.48 49.33,51.99l0 126.99c-6.86,34.51 -23.45,51.77 -49.33,51.77l-352.64 0 0 160.83 505.73 0c32.74,7.3 49.11,22.12 49.11,44.02l0 142.69c-9.07,29.42 -23.67,44.02 -44.02,44.02l-632.5 0c-49.78,0 -85.17,-28.54 -106.41,-85.62l-2.66 -23.23 0 -795.98c0,-49.56 28.54,-85.18 85.62,-106.19l23.45 -2.65z"/>
    <path class="fil0" d="M4022.69 2856.97l-566.37 -566.37 -234.54 234.54 566.37 566.37 234.54 -234.54zm-323.83 323.83l-566.37 -566.36 -234.54 234.54 566.37 566.36 234.54 -234.54z"/>
    <polygon class="fil0" points="3798.37,3592.05 3122.27,3592.05 3122.27,3882.21 3798.37,3882.21 "/>
   </g>
  </g>
  <polygon class="fil1" points="-0,0 4252.03,0 4252.03,4252.03 -0,4252.03 "/>
 </g>
</svg>
